<?xml version="1.0" encoding="UTF-8"?>
<svg version="1.1" xmlns="http://www.w3.org/2000/svg" width="574" height="574">
<path d="M0 0 C189.42 0 378.84 0 574 0 C574 189.42 574 378.84 574 574 C384.58 574 195.16 574 0 574 C0 384.58 0 195.16 0 0 Z " fill="#0F0F0F" transform="translate(0,0)"/>
<path d="M0 0 C37.95 0 75.9 0 115 0 C115 53.13 115 106.26 115 161 C164.5 161 214 161 265 161 C265 107.87 265 54.74 265 0 C302.62 0 340.24 0 379 0 C379 144.87 379 289.74 379 439 C341.05 439 303.1 439 264 439 C264 386.2 264 333.4 264 279 C214.83 279 165.66 279 115 279 C115 331.8 115 384.6 115 439 C77.05 439 39.1 439 0 439 C0 294.13 0 149.26 0 0 Z " fill="#0177D6" transform="translate(92,68)"/>
<path d="M0 0 C12.21 0 24.42 0 37 0 C37 53.46 37 106.92 37 162 C112.24 162 187.48 162 265 162 C265 108.54 265 55.08 265 0 C276.88 0 288.76 0 301 0 C301 119.13 301 238.26 301 361 C288.79 361 276.58 361 264 361 C264 307.87 264 254.74 264 200 C189.09 200 114.18 200 37 200 C37 253.13 37 306.26 37 361 C24.79 361 12.58 361 0 361 C0 241.87 0 122.74 0 0 Z " fill="#0F1010" transform="translate(131,107)"/>
<path d="M0 0 C3.45492449 0.77421159 6.88422104 0.6550291 10.40567017 0.6309967 C11.21098175 0.62953644 12.01629333 0.62807617 12.8460083 0.62657166 C14.59151893 0.62277108 16.33702572 0.61666023 18.08252144 0.60850525 C20.84347937 0.59573855 23.60438926 0.5892254 26.3653717 0.58436584 C32.22444783 0.57293964 38.08348437 0.5536927 43.9425354 0.53334045 C50.73503779 0.50976116 57.52751755 0.48936527 64.32005119 0.47740173 C67.04275911 0.47090885 69.76539789 0.45840178 72.48808289 0.44569397 C74.15331969 0.44206218 75.81855715 0.43871035 77.48379517 0.4356842 C78.24283646 0.43051788 79.00187775 0.42535156 79.78392029 0.42002869 C82.92652239 0.41971071 85.37468434 0.53155677 88.3800354 1.53334045 C89.49472837 4.87741937 89.50308474 7.36812507 89.50028992 10.89239502 C89.50114434 11.54015957 89.50199877 12.18792411 89.50287908 12.85531789 C89.50452841 15.0295142 89.49902146 17.20363365 89.49356079 19.37782288 C89.49327878 20.93489581 89.49343693 22.49196889 89.4940033 24.04904175 C89.49429071 28.28014572 89.488403 32.51122147 89.48142934 36.74231887 C89.4751865 41.16259223 89.47459126 45.58286622 89.47340393 50.00314331 C89.47029337 58.37538433 89.46208366 66.74761232 89.45205444 75.1198476 C89.43879706 86.43196863 89.43339118 97.74409321 89.42755222 109.05622005 C89.4181436 126.88193662 89.39822284 144.70762568 89.3800354 162.53334045 C137.2300354 162.53334045 185.0800354 162.53334045 234.3800354 162.53334045 C234.0500354 150.98334045 233.7200354 139.43334045 233.3800354 127.53334045 C233.3242026 119.41273928 233.27497037 111.30023227 233.30487061 103.18073654 C233.31808361 99.56292394 233.32425616 95.94514943 233.32901001 92.32731628 C233.3401908 84.68763978 233.35951978 77.0479968 233.3800354 69.40834045 C233.40379108 60.4458808 233.42404004 51.48343791 233.43597412 42.52095413 C233.44239999 38.97524336 233.45488504 35.42958851 233.46768188 31.88389587 C233.47131342 29.71349636 233.47466528 27.54309636 233.47769165 25.37269592 C233.48285797 24.40340652 233.48802429 23.43411713 233.49334717 22.43545532 C233.49374101 17.33697979 233.22858575 12.45675199 232.41644287 7.41856575 C232.3800354 5.53334045 232.3800354 5.53334045 234.21206665 2.48646545 C238.61600461 -0.22866276 242.00995212 0.01756978 247.0675354 0.28334045 C248.86821251 0.3352644 250.6690004 0.38348846 252.46987915 0.4278717 C253.32436646 0.45316956 254.17885376 0.47846741 255.05923462 0.50453186 C258.46397181 0.54679559 261.75770109 0.18965754 265.1144104 -0.3455658 C267.3800354 -0.46665955 267.3800354 -0.46665955 271.04527283 0.02165222 C275.0509911 0.54043007 278.95857131 0.63480711 283.00186157 0.59925842 C283.71676254 0.59458557 284.43166351 0.58991272 285.16822815 0.58509827 C286.70468417 0.57467805 288.24112651 0.56204399 289.77754784 0.54737473 C292.21172187 0.52517485 294.64581615 0.51121268 297.08006287 0.49967957 C303.9955119 0.46624093 310.91082727 0.42430108 317.82608032 0.36195374 C322.06927976 0.32428148 326.31234712 0.30127993 330.55568886 0.28764725 C332.16763324 0.27960728 333.77956007 0.26601857 335.39140892 0.24671555 C337.64323648 0.22019671 339.89442833 0.2123406 342.14639282 0.20863342 C343.42576218 0.19895538 344.70513153 0.18927734 346.02326965 0.17930603 C349.60258194 0.55681219 351.49073176 1.44567751 354.3800354 3.53334045 C354.0500354 4.19334045 353.7200354 4.85334045 353.3800354 5.53334045 C353.27870794 7.89987817 353.2378915 10.23724855 353.2413702 12.60422707 C353.23710687 13.71441755 353.23710687 13.71441755 353.23275742 14.84703612 C353.22436722 17.35272155 353.22313884 19.85836101 353.22181702 22.36405945 C353.2172546 24.16832444 353.21225506 25.97258838 353.20685345 27.77685106 C353.19322637 32.75481779 353.18584081 37.73277767 353.17942679 42.71075821 C353.17144285 48.07138121 353.15773821 53.43198984 353.14471436 58.79260254 C353.12292306 68.08687009 353.1047883 77.38113906 353.08910942 86.67541885 C353.0664349 100.11352891 353.03828876 113.55162307 353.00879014 126.98971967 C352.96108452 148.79006022 352.91782841 170.59040725 352.87734985 192.39076233 C352.83801002 213.57273361 352.79658744 234.75469912 352.75234985 255.93666077 C352.74826345 257.8938482 352.74826345 257.8938482 352.74409448 259.89057477 C352.73041525 266.43607271 352.71669493 272.98157056 352.70295417 279.52706838 C352.58894275 333.86248038 352.48214374 388.19790487 352.3800354 442.53334045 C352.0500354 442.53334045 351.7200354 442.53334045 351.3800354 442.53334045 C351.3800354 297.66334045 351.3800354 152.79334045 351.3800354 3.53334045 C313.7600354 3.53334045 276.1400354 3.53334045 237.3800354 3.53334045 C237.3800354 56.66334045 237.3800354 109.79334045 237.3800354 164.53334045 C187.8800354 164.53334045 138.3800354 164.53334045 87.3800354 164.53334045 C87.3800354 111.40334045 87.3800354 58.27334045 87.3800354 3.53334045 C49.4300354 3.53334045 11.4800354 3.53334045 -27.6199646 3.53334045 C-27.6199646 148.40334045 -27.6199646 293.27334045 -27.6199646 442.53334045 C10.3300354 442.53334045 48.2800354 442.53334045 87.3800354 442.53334045 C87.3800354 443.19334045 87.3800354 443.85334045 87.3800354 444.53334045 C75.06096202 444.66490918 62.74187748 444.79537586 50.42277813 444.92449188 C44.70059838 444.98449926 38.97842292 445.04486555 33.2562561 445.10609436 C27.71896566 445.16533103 22.1816655 445.22356972 16.64435768 445.28115845 C14.54720508 445.30313642 12.45005602 445.32545508 10.352911 445.34814453 C4.6042926 445.41021953 -1.14428593 445.46357773 -6.89307022 445.50761414 C-9.66508275 445.53376611 -12.43662597 445.57481717 -15.20843506 445.61708069 C-16.95132037 445.63577709 -18.69420967 445.65410549 -20.43710327 445.67201233 C-21.23793744 445.68794685 -22.03877161 445.70388138 -22.86387348 445.72029877 C-24.783532 445.73419945 -26.70340384 445.64323535 -28.6199646 445.53334045 C-30.6199646 443.53334045 -30.6199646 443.53334045 -30.86123592 440.64531726 C-30.85713637 439.39945434 -30.85303683 438.15359143 -30.84881306 436.86997509 C-30.84928394 436.17695482 -30.84975483 435.48393454 -30.85023998 434.76991365 C-30.84940786 432.43696376 -30.83425309 430.10432206 -30.81925964 427.77142334 C-30.81584478 426.10692503 -30.8133294 424.44242467 -30.81165016 422.7779237 C-30.80462553 418.23653191 -30.78534421 413.69526236 -30.76412021 409.1539178 C-30.74377554 404.32871937 -30.7349393 399.50350069 -30.7251482 394.67827129 C-30.7076064 386.61716095 -30.6840317 378.55608922 -30.65668106 370.49500656 C-30.61959923 359.37591971 -30.60262082 348.25688249 -30.59393311 337.13774109 C-30.5924853 335.39696854 -30.59102886 333.65619599 -30.58956379 331.91542345 C-30.58737459 329.30740289 -30.58518704 326.69938234 -30.58305299 324.09136174 C-30.57472049 314.28643614 -30.56014704 304.48152145 -30.54444885 294.67660522 C-30.54300543 293.77467479 -30.541562 292.87274435 -30.54007483 291.94348269 C-30.49717283 265.43093491 -30.44261069 238.91840639 -30.38424969 212.40588856 C-30.37528931 208.31433942 -30.36637895 204.22279018 -30.35751343 200.13124084 C-30.35530974 199.11517424 -30.35310606 198.09910763 -30.3508356 197.05225112 C-30.31494853 180.35597645 -30.29034186 163.65970214 -30.26961758 146.96340255 C-30.24790482 129.65566203 -30.21495998 112.34797014 -30.17126304 95.04027098 C-30.14483602 84.43755424 -30.12707535 73.83489766 -30.12061856 63.23214962 C-30.11538872 56.02981869 -30.09925421 48.82756521 -30.07429894 41.62527577 C-30.06023912 37.47462823 -30.05113079 33.32411953 -30.05495644 29.17344666 C-30.05834541 25.38263017 -30.04812753 21.59211163 -30.02672908 17.80135628 C-30.0214272 16.42635713 -30.02126153 15.05132729 -30.02656897 13.67632816 C-30.03301631 11.8181452 -30.01947099 9.95992416 -30.00472546 8.10178852 C-30.00282685 7.06718064 -30.00092825 6.03257275 -29.99897212 4.96661311 C-29.8113634 3.76214315 -29.8113634 3.76214315 -29.6199646 2.53334045 C-26.38486087 0.37660464 -25.58765842 0.29861589 -21.87387085 0.3731842 C-20.49425171 0.38961975 -20.49425171 0.38961975 -19.08676147 0.40638733 C-18.12834351 0.42765686 -17.16992554 0.44892639 -16.1824646 0.47084045 C-14.28801146 0.50537809 -12.39347133 0.53549357 -10.49887085 0.5606842 C-9.23925537 0.58763367 -9.23925537 0.58763367 -7.95419312 0.61512756 C-5.64040376 0.6239707 -5.64040376 0.6239707 -3.56503296 -0.03086853 C-1.6199646 -0.46665955 -1.6199646 -0.46665955 0 0 Z " fill="#04243F" transform="translate(119.61996459960938,64.46665954589844)"/>
<path d="M0 0 C0.83587646 -0.00095673 1.67175293 -0.00191345 2.53295898 -0.00289917 C4.30159582 -0.00358018 6.07023515 -0.00173141 7.83886719 0.00244141 C10.55148921 0.00779079 13.26394565 0.00249375 15.9765625 -0.00390625 C17.6927087 -0.00324545 19.4088548 -0.00196426 21.125 0 C22.3469104 -0.00303635 22.3469104 -0.00303635 23.59350586 -0.00613403 C29.33258072 0.01785286 29.33258072 0.01785286 31.5625 1.1328125 C31.5625 53.9328125 31.5625 106.7328125 31.5625 161.1328125 C55.3225 161.1328125 79.0825 161.1328125 103.5625 161.1328125 C116.22748015 161.18535501 128.89151156 161.23976376 141.55608559 161.33474159 C145.62359981 161.36464951 149.69113464 161.39151461 153.75866699 161.41882324 C161.32113432 161.46999771 168.88358233 161.52356158 176.44602537 161.5781951 C185.11498903 161.64069012 193.78397258 161.70019981 202.45295811 161.75957012 C220.15616122 161.88087322 237.85933864 162.00556343 255.5625 162.1328125 C255.56111731 160.90641273 255.56111731 160.90641273 255.55970669 159.6552372 C255.53764683 139.7846139 255.52108618 119.91399271 255.51068783 100.04335976 C255.50552594 90.43417548 255.49848527 80.82499936 255.48706055 71.21582031 C255.47711045 62.84295661 255.47064579 54.47009881 255.46841151 46.09722936 C255.46710496 41.66162025 255.46402259 37.22602805 255.45676994 32.79042435 C255.45000461 28.61922903 255.4478841 24.44805766 255.44939232 20.27685738 C255.44911622 18.74254158 255.44711413 17.20822502 255.44329453 15.67391396 C255.43834927 13.5857716 255.43950481 11.4977207 255.44224548 9.40957642 C255.44086279 7.65356078 255.44086279 7.65356078 255.43945217 5.86207008 C255.5625 3.1328125 255.5625 3.1328125 256.5625 1.1328125 C269.1025 1.1328125 281.6425 1.1328125 294.5625 1.1328125 C294.5625 120.9228125 294.5625 240.7128125 294.5625 364.1328125 C282.3525 364.1328125 270.1425 364.1328125 257.5625 364.1328125 C257.5625 363.8028125 257.5625 363.4728125 257.5625 363.1328125 C269.4425 363.1328125 281.3225 363.1328125 293.5625 363.1328125 C293.5625 244.0028125 293.5625 124.8728125 293.5625 2.1328125 C281.6825 2.1328125 269.8025 2.1328125 257.5625 2.1328125 C257.5625 55.5928125 257.5625 109.0528125 257.5625 164.1328125 C182.3225 164.1328125 107.0825 164.1328125 29.5625 164.1328125 C29.5625 110.6728125 29.5625 57.2128125 29.5625 2.1328125 C17.3525 2.1328125 5.1425 2.1328125 -7.4375 2.1328125 C-7.4375 121.2628125 -7.4375 240.3928125 -7.4375 363.1328125 C4.7725 363.1328125 16.9825 363.1328125 29.5625 363.1328125 C29.5625 310.0028125 29.5625 256.8728125 29.5625 202.1328125 C104.4725 202.1328125 179.3825 202.1328125 256.5625 202.1328125 C256.5625 255.2628125 256.5625 308.3928125 256.5625 363.1328125 C256.2325 363.1328125 255.9025 363.1328125 255.5625 363.1328125 C255.5625 310.3328125 255.5625 257.5328125 255.5625 203.1328125 C181.3125 203.1328125 107.0625 203.1328125 30.5625 203.1328125 C30.5625 256.5928125 30.5625 310.0528125 30.5625 365.1328125 C18.3525 365.4628125 6.1425 365.7928125 -6.4375 366.1328125 C-10.4375 362.1328125 -10.4375 362.1328125 -10.93429399 359.32127595 C-10.9327751 358.22616252 -10.93125622 357.13104908 -10.92969131 356.0027504 C-10.93765551 354.7372804 -10.9456197 353.4718104 -10.95382524 352.16799283 C-10.94241299 350.76093841 -10.9306306 349.35388695 -10.91851807 347.94683838 C-10.92026185 346.45433025 -10.92376322 344.96182331 -10.92887473 343.46932292 C-10.93783653 339.36223595 -10.9217948 335.2555647 -10.90176249 331.14853072 C-10.88451908 326.72183844 -10.89033198 322.29517038 -10.89337158 317.86845398 C-10.89547092 310.19696734 -10.88290077 302.52561658 -10.86042023 294.85416412 C-10.82793816 283.76249887 -10.8174971 272.67089944 -10.81246826 261.57919177 C-10.80370965 243.58449553 -10.77707871 225.58987174 -10.73925781 207.59521484 C-10.70255238 190.11312218 -10.67423343 172.63104919 -10.65722656 155.14892578 C-10.65617567 154.07167127 -10.65512477 152.99441676 -10.65404204 151.88451818 C-10.64882196 146.48035112 -10.64376711 141.07618391 -10.63879442 135.67201662 C-10.59731476 90.82556506 -10.52685092 45.97919251 -10.4375 1.1328125 C-7.17636087 -0.49775707 -3.58270683 -0.00890273 0 0 Z " fill="#1A67A8" transform="translate(138.4375,104.8671875)"/>
<path d="M0 0 C37.95 0 75.9 0 115 0 C115 53.13 115 106.26 115 161 C114.67 161 114.34 161 114 161 C114 108.2 114 55.4 114 1 C101.46 1.33 88.92 1.66 76 2 C76 2.33 76 2.66 76 3 C75.1127272 3.01030746 74.22545441 3.02061493 73.31129456 3.03123474 C64.96748429 3.12903425 56.62374785 3.23152315 48.28006077 3.33933926 C43.9900379 3.39460736 39.70000826 3.44803343 35.40991211 3.49731445 C31.27314564 3.54490086 27.13646464 3.59724132 22.99979973 3.65294075 C21.41810153 3.67339034 19.83637988 3.69209903 18.25464058 3.70907402 C16.04670822 3.7330607 13.8389388 3.76312256 11.63110352 3.79467773 C10.37201675 3.81022202 9.11292999 3.8257663 7.81568909 3.84178162 C5.09702459 3.68086804 5.09702459 3.68086804 4 5 C3.90277157 7.24000248 3.87813565 9.48314875 3.87974548 11.72525978 C3.87889124 12.44018689 3.87803699 13.155114 3.87715685 13.89170557 C3.87549595 16.31777176 3.88104148 18.74377036 3.88647461 21.16983032 C3.88675429 22.91461987 3.8865923 24.65940953 3.88602352 26.404199 C3.88572642 31.22270266 3.89168497 36.04118196 3.89859343 40.85967994 C3.90494173 46.04730071 3.90553455 51.23492233 3.9067688 56.42254639 C3.90966184 65.4199831 3.91611166 74.41741165 3.92483521 83.41484451 C3.93736284 96.43140275 3.94345993 109.44795795 3.94776857 122.46452121 C3.95484413 143.59077045 3.96565194 164.71701588 3.97949219 185.84326172 C3.98032 187.10888071 3.98114781 188.3744997 3.98200071 189.67847078 C3.98874389 199.94512704 3.99566699 210.21178319 4.00260353 220.47843933 C4.00865439 229.44379674 4.01463534 238.40915419 4.02050781 247.37451172 C4.02133594 248.6367773 4.02216407 249.89904288 4.02301729 251.19955893 C4.03669762 272.23706413 4.04646024 293.2745694 4.05341816 314.31207788 C4.05790358 327.29685919 4.06595242 340.28162914 4.07856297 353.26640515 C4.08698163 362.16460141 4.09187783 371.06279505 4.09398818 379.96099503 C4.09533483 385.09795162 4.09835377 390.23489351 4.10574722 395.37184525 C4.11248858 400.07348506 4.11463388 404.77510361 4.11311162 409.4767478 C4.11338336 411.17871663 4.11536033 412.88068622 4.1192044 414.58265074 C4.12418515 416.89502482 4.12298422 419.20731738 4.12025452 421.51969337 C4.12117631 422.80450462 4.1220981 424.08931587 4.12304783 425.41306078 C3.99971515 429.00830352 3.5762827 432.45152751 3 436 C4.45823212 436.0270043 5.91660675 436.04639787 7.375 436.0625 C8.59316406 436.07990234 8.59316406 436.07990234 9.8359375 436.09765625 C12.04937142 436.14466334 12.04937142 436.14466334 14 435 C15.83446407 435.32863426 15.83446407 435.32863426 18.03904724 435.91757202 C22.87506106 437.06501188 27.42062072 437.30572527 32.37524414 437.31884766 C33.27833785 437.32900091 34.18143156 437.33915417 35.11189175 437.3496151 C38.00297643 437.37997891 40.89396408 437.39732847 43.78515625 437.4140625 C45.58297549 437.43101971 47.38078681 437.44883882 49.17858887 437.4675293 C55.80646852 437.53044105 62.43449751 437.57673479 69.0625 437.625 C83.891875 437.74875 98.72125 437.8725 114 438 C114 385.2 114 332.4 114 278 C163.83 278 213.66 278 265 278 C265 330.8 265 383.6 265 438 C302.29 438 339.58 438 378 438 C378 293.79 378 149.58 378 1 C340.71 1 303.42 1 265 1 C265 0.67 265 0.34 265 0 C302.62 0 340.24 0 379 0 C379 144.87 379 289.74 379 439 C341.05 439 303.1 439 264 439 C264 386.2 264 333.4 264 279 C214.83 279 165.66 279 115 279 C115 331.8 115 384.6 115 439 C77.05 439 39.1 439 0 439 C0 294.13 0 149.26 0 0 Z " fill="#165287" transform="translate(92,68)"/>
<path d="M0 0 C12.21 0 24.42 0 37 0 C37 53.46 37 106.92 37 162 C112.24 162 187.48 162 265 162 C265 108.54 265 55.08 265 0 C276.88 0 288.76 0 301 0 C301 119.13 301 238.26 301 361 C288.79 361 276.58 361 264 361 C264 307.87 264 254.74 264 200 C264.33 200 264.66 200 265 200 C265 252.8 265 305.6 265 360 C276.55 360 288.1 360 300 360 C299.67 242.19 299.34 124.38 299 3 C288.44 3 277.88 3 267 3 C266.98541748 7.83640137 266.97083496 12.67280273 266.95581055 17.65576172 C266.90557632 33.59744114 266.83915337 49.5390223 266.76428509 65.48060417 C266.71927062 75.15030708 266.67986913 84.8199727 266.65356445 94.48974609 C266.63063 102.91541765 266.59728336 111.34097172 266.55129844 119.76655018 C266.52730451 124.23011543 266.50861631 128.6935639 266.50238609 133.15719223 C266.49636296 137.35478255 266.47646462 141.55207381 266.44572449 145.74955368 C266.43689952 147.29352242 266.43323083 148.83753017 266.43499184 150.38152313 C266.43663262 152.48312321 266.4200503 154.58379848 266.39872742 156.68527222 C266.39411845 157.86332365 266.38950949 159.04137508 266.38476086 160.25512505 C266.25778977 161.16093378 266.13081869 162.06674252 266 163 C262.02915179 165.64723214 258.6271892 165.25371959 254.0214386 165.20254517 C253.09190894 165.20017046 252.16237928 165.19779576 251.20468205 165.1953491 C248.07684516 165.18489725 244.94928718 165.16001526 241.8215332 165.13525391 C239.5846698 165.12483227 237.34780211 165.11529621 235.1109314 165.10658264 C229.02651998 165.08035826 222.94224276 165.04169304 216.85791421 165.00085878 C210.50379711 164.96030821 204.14962832 164.93110936 197.79545593 164.90072632 C187.12653252 164.8481741 176.45767157 164.78858751 165.78881836 164.72363281 C154.79925725 164.65674478 143.80968541 164.59410353 132.82006836 164.53710938 C132.13589917 164.53355588 131.45172997 164.53000238 130.74682838 164.5263412 C124.79565533 164.4954684 118.84448065 164.46491768 112.89330578 164.43439865 C87.26211937 164.30253808 61.63110355 164.14952319 36 164 C36 110.21 36 56.42 36 1 C24.45 1 12.9 1 1 1 C1 119.47 1 237.94 1 360 C12.55 360 24.1 360 36 360 C36 307.2 36 254.4 36 200 C36.33 200 36.66 200 37 200 C37 253.13 37 306.26 37 361 C24.79 361 12.58 361 0 361 C0 241.87 0 122.74 0 0 Z " fill="#052A4D" transform="translate(131,107)"/>
<path d="M0 0 C11.55 0 23.1 0 35 0 C35 52.8 35 105.6 35 160 C34.67 160 34.34 160 34 160 C33.67 107.86 33.34 55.72 33 2 C22.44 1.67 11.88 1.34 1 1 C1.01252808 4.88257568 1.02505615 8.76515137 1.03796387 12.76538086 C1.15336088 48.54664065 1.26811342 84.32790246 1.38218227 120.1091665 C1.3971987 124.81935972 1.41222068 129.52955291 1.42724609 134.23974609 C1.43023671 135.17727856 1.43322732 136.11481102 1.43630856 137.08075356 C1.48445216 152.16923769 1.53304298 167.25772035 1.58180541 182.34620249 C1.63200262 197.88180463 1.68170459 213.41740829 1.73096704 228.95301342 C1.75857917 237.65657345 1.786407 246.36013268 1.81480408 255.06369019 C2.04479308 325.61902981 2.04479308 325.61902981 2 358 C3.65 357.67 5.3 357.34 7 357 C20.365 357.495 20.365 357.495 34 358 C34 305.2 34 252.4 34 198 C110.23 198 186.46 198 265 198 C265.4375 264 265.4375 264 265.56811523 284.6953125 C265.61145598 290.91797266 265.61145598 290.91797266 265.65589905 297.140625 C265.67488487 299.87207231 265.69258099 302.60349574 265.70826721 305.33496094 C265.8085027 322.57475028 266.11960151 339.77979208 267 357 C271.45831184 357.05545567 275.91645117 357.09353847 280.375 357.125 C281.64601563 357.14175781 282.91703125 357.15851563 284.2265625 357.17578125 C285.43828125 357.18222656 286.65 357.18867188 287.8984375 357.1953125 C289.01911621 357.20578613 290.13979492 357.21625977 291.29443359 357.22705078 C294.14977843 357.28055323 294.14977843 357.28055323 296 355 C296.30193825 352.37715733 296.30193825 352.37715733 296.24609566 349.25658989 C296.25007775 348.02645255 296.25405985 346.79631521 296.25816262 345.52890098 C296.2524558 344.15133648 296.24656459 342.77377273 296.24050903 341.39620972 C296.24138044 339.94255311 296.24313022 338.48889681 296.24568737 337.0352422 C296.25017772 333.02636706 296.24213418 329.01759798 296.23213124 325.00873637 C296.22352322 320.69107605 296.22641502 316.37342209 296.22793579 312.05575562 C296.22898633 304.57034759 296.22269217 297.08497433 296.21146011 289.59957504 C296.19523084 278.7768454 296.18999975 267.95413263 296.18748413 257.13139214 C296.18310298 239.57375058 296.1697825 222.01612757 296.15087891 204.45849609 C296.13253097 187.39925225 296.11836915 170.34001343 296.10986328 153.28076172 C296.10933783 152.22986472 296.10881239 151.17896773 296.10827102 150.09622537 C296.10566101 144.82437358 296.10313358 139.55252177 296.10064721 134.28066993 C296.07990163 90.52043377 296.04466468 46.76021784 296 3 C295.01 2.67 294.02 2.34 293 2 C292.67 2.66 292.34 3.32 292 4 C291.34 3.67 290.68 3.34 290 3 C288.2984375 3.0309375 288.2984375 3.0309375 286.5625 3.0625 C283 3 283 3 280 1 C282.97922593 0.97316013 285.95821295 0.95323963 288.9375 0.9375 C289.78763672 0.92912109 290.63777344 0.92074219 291.51367188 0.91210938 C292.32255859 0.90888672 293.13144531 0.90566406 293.96484375 0.90234375 C295.08814087 0.89448853 295.08814087 0.89448853 296.23413086 0.88647461 C298 1 298 1 299 2 C299.09764917 3.89741476 299.1237133 5.79852343 299.12304783 7.69844913 C299.12503888 8.9440124 299.12702993 10.18957567 299.12908131 11.47288328 C299.12622772 12.87304074 299.12328211 14.27319801 299.12025452 15.6733551 C299.12069009 17.14677208 299.12156474 18.62018898 299.12284368 20.09360546 C299.1250914 24.16171776 299.1210636 28.22980398 299.11606562 32.29791296 C299.11176525 36.67762274 299.11320725 41.05733094 299.1139679 45.43704224 C299.1144934 53.0315899 299.1113439 60.626129 299.10573006 68.22067451 C299.09761855 79.20124409 299.0950002 90.18180951 299.09374207 101.16238176 C299.09155099 118.9756885 299.08488942 136.78899067 299.07543945 154.60229492 C299.06626676 171.91088844 299.05918523 189.21948072 299.05493164 206.52807617 C299.05453756 208.12721822 299.05453756 208.12721822 299.05413551 209.75866617 C299.05283051 215.10670896 299.0515668 220.45475177 299.05032361 225.80279458 C299.03994928 270.20186638 299.02205513 314.6009326 299 359 C287.45 359 275.9 359 264 359 C264 306.2 264 253.4 264 199 C188.43 199 112.86 199 35 199 C35 251.8 35 304.6 35 359 C23.45 359 11.9 359 0 359 C0 240.53 0 122.06 0 0 Z " fill="#011A34" transform="translate(132,108)"/>
<path d="M0 0 C33.66 0 67.32 0 102 0 C102 52.8 102 105.6 102 160 C151.83 160 201.66 160 253 160 C253 107.2 253 54.4 253 0 C290.29 0 327.58 0 366 0 C366 144.21 366 288.42 366 437 C361.71 437 357.42 437 353 437 C353 436.67 353 436.34 353 436 C356.87684087 434.80712589 359.91621923 434 364 434 C364 400.34 364 366.68 364 332 C363.67 332 363.34 332 363 332 C362.87135068 311.92674752 363.02595617 291.86980144 363.42666638 271.80008197 C364.00115548 242.48726613 364.13608888 213.18533812 364.10139394 183.86774397 C364.09495908 177.46453441 364.09454127 171.06132387 364.09336853 164.65811157 C364.09065542 153.98837866 364.08449533 143.31865478 364.07543945 132.64892578 C364.06615315 121.69580114 364.05912849 110.7426786 364.05493164 99.78955078 C364.05466892 99.10583178 364.05440619 98.42211278 364.05413551 97.71767502 C364.05282976 94.28509915 364.05156623 90.85252327 364.05032361 87.41994739 C364.04008284 59.27995977 364.02250675 31.1399803 364 3 C347.77579429 2.37212307 331.56374161 1.84704159 315.328125 1.68359375 C313.7283493 1.66505939 312.12857713 1.64621753 310.52880859 1.6270752 C304.76924721 1.56020979 299.00961944 1.49916246 293.25 1.4375 C273.82125 1.2209375 273.82125 1.2209375 254 1 C254 53.8 254 106.6 254 161 C251.27313653 162.36343173 249.12543787 162.12593981 246.07164001 162.12698364 C244.1764991 162.13121338 244.1764991 162.13121338 242.24307251 162.13552856 C240.8351439 162.13358409 239.42721543 162.13153591 238.01928711 162.12939453 C236.54280046 162.13074892 235.06631416 162.13252906 233.58982849 162.13470459 C229.57347056 162.13927409 225.55713823 162.13749144 221.54077983 162.1343255 C217.34518408 162.1317999 213.14959058 162.13413996 208.95399475 162.13571167 C201.90837204 162.13753257 194.8627598 162.13512891 187.81713867 162.13037109 C179.66009366 162.12492652 171.50307363 162.12669287 163.34602922 162.1321975 C156.35324767 162.13672836 149.36047365 162.13737937 142.3676911 162.13475883 C138.18645255 162.13319618 134.00522576 162.13300201 129.82398796 162.13629532 C125.89489249 162.13917372 121.9658294 162.13719893 118.03673744 162.13140106 C116.59069243 162.13007338 115.14464472 162.13046771 113.69860077 162.13266373 C111.73286025 162.13537484 109.76711381 162.13138076 107.80137634 162.12698364 C106.14742812 162.1264181 106.14742812 162.1264181 104.4600668 162.12584114 C102 162 102 162 101 161 C100.90318178 158.93705722 100.87813077 156.87073958 100.87974548 154.80552673 C100.87889106 154.15130393 100.87803663 153.49708113 100.87715632 152.82303339 C100.87549972 150.61498657 100.88102579 148.40701452 100.88647461 146.19897461 C100.88675647 144.62249249 100.88659877 143.04601024 100.8860321 141.4695282 C100.88574408 137.17632451 100.8916416 132.88314851 100.89860606 128.58995128 C100.90483879 124.10827317 100.90544333 119.62659449 100.90663147 115.14491272 C100.90974503 106.65219091 100.91795874 98.15948191 100.92798096 89.66676575 C100.94122636 78.19480825 100.94664181 66.72284727 100.95248318 55.25088406 C100.96189862 37.16724644 100.98181737 19.08363585 101 1 C67.67 1 34.34 1 0 1 C0 0.67 0 0.34 0 0 Z " fill="#166FB7" transform="translate(104,69)"/>
<path d="M0 0 C3.45492449 0.77421159 6.88422104 0.6550291 10.40567017 0.6309967 C11.21098175 0.62953644 12.01629333 0.62807617 12.8460083 0.62657166 C14.59151893 0.62277108 16.33702572 0.61666023 18.08252144 0.60850525 C20.84347937 0.59573855 23.60438926 0.5892254 26.3653717 0.58436584 C32.22444783 0.57293964 38.08348437 0.5536927 43.9425354 0.53334045 C50.73503779 0.50976116 57.52751755 0.48936527 64.32005119 0.47740173 C67.04275911 0.47090885 69.76539789 0.45840178 72.48808289 0.44569397 C74.15331969 0.44206218 75.81855715 0.43871035 77.48379517 0.4356842 C78.24283646 0.43051788 79.00187775 0.42535156 79.78392029 0.42002869 C82.92652239 0.41971071 85.37468434 0.53155677 88.3800354 1.53334045 C88.3800354 2.19334045 88.3800354 2.85334045 88.3800354 3.53334045 C50.1000354 3.53334045 11.8200354 3.53334045 -27.6199646 3.53334045 C-27.6199646 148.40334045 -27.6199646 293.27334045 -27.6199646 442.53334045 C10.3300354 442.53334045 48.2800354 442.53334045 87.3800354 442.53334045 C87.3800354 443.19334045 87.3800354 443.85334045 87.3800354 444.53334045 C75.06096202 444.66490918 62.74187748 444.79537586 50.42277813 444.92449188 C44.70059838 444.98449926 38.97842292 445.04486555 33.2562561 445.10609436 C27.71896566 445.16533103 22.1816655 445.22356972 16.64435768 445.28115845 C14.54720508 445.30313642 12.45005602 445.32545508 10.352911 445.34814453 C4.6042926 445.41021953 -1.14428593 445.46357773 -6.89307022 445.50761414 C-9.66508275 445.53376611 -12.43662597 445.57481717 -15.20843506 445.61708069 C-16.95132037 445.63577709 -18.69420967 445.65410549 -20.43710327 445.67201233 C-21.23793744 445.68794685 -22.03877161 445.70388138 -22.86387348 445.72029877 C-24.783532 445.73419945 -26.70340384 445.64323535 -28.6199646 445.53334045 C-30.6199646 443.53334045 -30.6199646 443.53334045 -30.86123592 440.64531726 C-30.85713637 439.39945434 -30.85303683 438.15359143 -30.84881306 436.86997509 C-30.84928394 436.17695482 -30.84975483 435.48393454 -30.85023998 434.76991365 C-30.84940786 432.43696376 -30.83425309 430.10432206 -30.81925964 427.77142334 C-30.81584478 426.10692503 -30.8133294 424.44242467 -30.81165016 422.7779237 C-30.80462553 418.23653191 -30.78534421 413.69526236 -30.76412021 409.1539178 C-30.74377554 404.32871937 -30.7349393 399.50350069 -30.7251482 394.67827129 C-30.7076064 386.61716095 -30.6840317 378.55608922 -30.65668106 370.49500656 C-30.61959923 359.37591971 -30.60262082 348.25688249 -30.59393311 337.13774109 C-30.5924853 335.39696854 -30.59102886 333.65619599 -30.58956379 331.91542345 C-30.58737459 329.30740289 -30.58518704 326.69938234 -30.58305299 324.09136174 C-30.57472049 314.28643614 -30.56014704 304.48152145 -30.54444885 294.67660522 C-30.54300543 293.77467479 -30.541562 292.87274435 -30.54007483 291.94348269 C-30.49717283 265.43093491 -30.44261069 238.91840639 -30.38424969 212.40588856 C-30.37528931 208.31433942 -30.36637895 204.22279018 -30.35751343 200.13124084 C-30.35530974 199.11517424 -30.35310606 198.09910763 -30.3508356 197.05225112 C-30.31494853 180.35597645 -30.29034186 163.65970214 -30.26961758 146.96340255 C-30.24790482 129.65566203 -30.21495998 112.34797014 -30.17126304 95.04027098 C-30.14483602 84.43755424 -30.12707535 73.83489766 -30.12061856 63.23214962 C-30.11538872 56.02981869 -30.09925421 48.82756521 -30.07429894 41.62527577 C-30.06023912 37.47462823 -30.05113079 33.32411953 -30.05495644 29.17344666 C-30.05834541 25.38263017 -30.04812753 21.59211163 -30.02672908 17.80135628 C-30.0214272 16.42635713 -30.02126153 15.05132729 -30.02656897 13.67632816 C-30.03301631 11.8181452 -30.01947099 9.95992416 -30.00472546 8.10178852 C-30.00282685 7.06718064 -30.00092825 6.03257275 -29.99897212 4.96661311 C-29.8113634 3.76214315 -29.8113634 3.76214315 -29.6199646 2.53334045 C-26.38486087 0.37660464 -25.58765842 0.29861589 -21.87387085 0.3731842 C-20.49425171 0.38961975 -20.49425171 0.38961975 -19.08676147 0.40638733 C-18.12834351 0.42765686 -17.16992554 0.44892639 -16.1824646 0.47084045 C-14.28801146 0.50537809 -12.39347133 0.53549357 -10.49887085 0.5606842 C-9.23925537 0.58763367 -9.23925537 0.58763367 -7.95419312 0.61512756 C-5.64040376 0.6239707 -5.64040376 0.6239707 -3.56503296 -0.03086853 C-1.6199646 -0.46665955 -1.6199646 -0.46665955 0 0 Z " fill="#001E3B" transform="translate(119.61996459960938,64.46665954589844)"/>
<path d="M0 0 C2.97922593 -0.02683987 5.95821295 -0.04676037 8.9375 -0.0625 C10.21270508 -0.07506836 10.21270508 -0.07506836 11.51367188 -0.08789062 C12.32255859 -0.09111328 13.13144531 -0.09433594 13.96484375 -0.09765625 C14.7137085 -0.10289307 15.46257324 -0.10812988 16.23413086 -0.11352539 C18 0 18 0 19 1 C19.09764917 2.89741476 19.1237133 4.79852343 19.12304783 6.69844913 C19.12503888 7.9440124 19.12702993 9.18957567 19.12908131 10.47288328 C19.12622772 11.87304074 19.12328211 13.27319801 19.12025452 14.6733551 C19.12069009 16.14677208 19.12156474 17.62018898 19.12284368 19.09360546 C19.1250914 23.16171776 19.1210636 27.22980398 19.11606562 31.29791296 C19.11176525 35.67762274 19.11320725 40.05733094 19.1139679 44.43704224 C19.1144934 52.0315899 19.1113439 59.626129 19.10573006 67.22067451 C19.09761855 78.20124409 19.0950002 89.18180951 19.09374207 100.16238176 C19.09155099 117.9756885 19.08488942 135.78899067 19.07543945 153.60229492 C19.06626676 170.91088844 19.05918523 188.21948072 19.05493164 205.52807617 C19.05466892 206.59417087 19.05440619 207.66026557 19.05413551 208.75866617 C19.05283051 214.10670896 19.0515668 219.45475177 19.05032361 224.80279458 C19.03994928 269.20186638 19.02205513 313.6009326 19 358 C7.45 358 -4.1 358 -16 358 C-16.33 304.87 -16.66 251.74 -17 197 C-16.34 197 -15.68 197 -15 197 C-14.99576806 197.67363083 -14.99153612 198.34726166 -14.98717594 199.04130554 C-14.8831819 215.54822163 -14.77445206 232.05509936 -14.66066074 248.56195068 C-14.60573909 256.54503091 -14.55233198 264.52811554 -14.50268555 272.51123047 C-14.45933292 279.4816529 -14.41293993 286.45204786 -14.36312145 293.42242718 C-14.33692348 297.10195158 -14.31209421 300.78147199 -14.29092598 304.46102905 C-14.19091654 321.65873644 -13.87824885 338.82183815 -13 356 C-8.54168816 356.05545567 -4.08354883 356.09353847 0.375 356.125 C1.64601563 356.14175781 2.91703125 356.15851563 4.2265625 356.17578125 C5.43828125 356.18222656 6.65 356.18867188 7.8984375 356.1953125 C9.01911621 356.20578613 10.13979492 356.21625977 11.29443359 356.22705078 C14.14977843 356.28055323 14.14977843 356.28055323 16 354 C16.30193825 351.37715733 16.30193825 351.37715733 16.24609566 348.25658989 C16.25007775 347.02645255 16.25405985 345.79631521 16.25816262 344.52890098 C16.2524558 343.15133648 16.24656459 341.77377273 16.24050903 340.39620972 C16.24138044 338.94255311 16.24313022 337.48889681 16.24568737 336.0352422 C16.25017772 332.02636706 16.24213418 328.01759798 16.23213124 324.00873637 C16.22352322 319.69107605 16.22641502 315.37342209 16.22793579 311.05575562 C16.22898633 303.57034759 16.22269217 296.08497433 16.21146011 288.59957504 C16.19523084 277.7768454 16.18999975 266.95413263 16.18748413 256.13139214 C16.18310298 238.57375058 16.1697825 221.01612757 16.15087891 203.45849609 C16.13253097 186.39925225 16.11836915 169.34001343 16.10986328 152.28076172 C16.10933783 151.22986472 16.10881239 150.17896773 16.10827102 149.09622537 C16.10566101 143.82437358 16.10313358 138.55252177 16.10064721 133.28066993 C16.07990163 89.52043377 16.04466468 45.76021784 16 2 C15.01 1.67 14.02 1.34 13 1 C12.67 1.66 12.34 2.32 12 3 C11.34 2.67 10.68 2.34 10 2 C8.865625 2.020625 7.73125 2.04125 6.5625 2.0625 C3 2 3 2 0 0 Z " fill="#011123" transform="translate(412,109)"/>
<path d="M0 0 C49.17 0 98.34 0 149 0 C149 52.8 149 105.6 149 160 C148.01 160 147.02 160 146 160 C146.33 107.86 146.66 55.72 147 2 C129.1427906 1.87097126 129.1427906 1.87097126 111.6875 2.76855469 C103.70249448 3.26973221 95.69111718 3.14609566 87.69335938 3.13037109 C84.64447461 3.125243 81.59575374 3.13021261 78.546875 3.13671875 C53.02095818 3.12111611 27.53039177 2.47278503 2 2 C2 54.14 2 106.28 2 160 C1.34 160 0.68 160 0 160 C0 107.2 0 54.4 0 0 Z " fill="#001225" transform="translate(207,347)"/>
<path d="M0 0 C0.33 0 0.66 0 1 0 C1.12751764 54.24408019 1.25492441 108.48816065 1.38218227 162.73224145 C1.39720274 169.13472672 1.41222413 175.53721199 1.42724609 181.93969727 C1.43023671 183.21432898 1.43322732 184.48896069 1.43630856 185.80221761 C1.48474872 206.4469899 1.53326333 227.09176201 1.58180541 247.73653405 C1.631604 268.91639975 1.68132269 290.09626563 1.73096704 311.27613169 C1.76160829 324.34758964 1.79231203 337.41904743 1.82309544 350.49050505 C1.84419231 359.45133268 1.86521164 368.4121605 1.88616979 377.37298845 C1.8982678 382.54460903 1.9104002 387.71622953 1.92262459 392.88784981 C1.93381783 397.62355277 1.94491359 402.35925595 1.9559322 407.09495933 C1.95993296 408.80708668 1.96396934 410.51921394 1.96804518 412.23134112 C1.96995314 413.03357346 1.9718611 413.8358058 1.97382689 414.66234821 C1.97676571 415.81626725 1.97676571 415.81626725 1.9797639 416.99349779 C1.98277597 418.44807217 1.9845047 419.90264994 1.98476633 421.35722741 C1.98598581 424.21363711 2.0016518 427.06646212 2.07262325 429.92208016 C2.16273982 433.88679129 2.09205354 436.60056207 0 440 C-3.15182798 441.24162921 -5.78736069 440.93961745 -9.05615234 440.48486328 C-14.11399827 439.89738647 -18.96851336 440.11595549 -24.0390625 440.4296875 C-37.74362805 441.14498184 -51.43890712 441.15308334 -65.15722656 441.13037109 C-68.70816251 441.12459671 -72.25902409 441.12802122 -75.8099575 441.13394356 C-78.59138543 441.13757169 -81.37279592 441.13640158 -84.1542244 441.13381577 C-86.09112854 441.13284133 -88.02803341 441.13583346 -89.9649353 441.13894653 C-95.06197236 441.12540405 -100.05519834 441.07098977 -105.11572266 440.42919922 C-108.45011207 440.06076072 -109.94668225 440.08460388 -113 441 C-113 440.34 -113 439.68 -113 439 C-113.99 439 -114.98 439 -116 439 C-116 438.34 -116 437.68 -116 437 C-77.72 437 -39.44 437 0 437 C0 292.79 0 148.58 0 0 Z " fill="#001024" transform="translate(472,70)"/>
<path d="M0 0 C27.45372439 -0.07179369 54.90598968 0.0759885 82.35886574 0.28753281 C88.92777669 0.3380993 95.49667216 0.38485509 102.06567383 0.421875 C108.51864817 0.45858439 114.97148656 0.50482162 121.42434502 0.55806351 C123.86486937 0.57658281 126.30542201 0.59169984 128.74598885 0.60334396 C132.11864676 0.62009008 135.49098358 0.64906904 138.86352539 0.68115234 C140.36923599 0.68439262 140.36923599 0.68439262 141.90536499 0.68769836 C143.27243843 0.70444359 143.27243843 0.70444359 144.66712952 0.7215271 C145.85718896 0.72982324 145.85718896 0.72982324 147.07129002 0.73828697 C149 1 149 1 151 3 C101.5 3 52 3 1 3 C1 55.8 1 108.6 1 163 C-21.336875 163.0309375 -21.336875 163.0309375 -44.125 163.0625 C-51.16932373 163.07615601 -51.16932373 163.07615601 -58.35595703 163.09008789 C-64.10522461 163.09460449 -64.10522461 163.09460449 -66.79953003 163.09544373 C-68.67510211 163.09697597 -70.55067322 163.10048611 -72.42623901 163.10557556 C-75.27262068 163.11291106 -78.11894231 163.11390545 -80.96533203 163.11352539 C-81.79626436 163.1171235 -82.62719669 163.12072161 -83.48330879 163.12442875 C-87.76983057 163.11678367 -91.77783615 162.8545542 -96 162 C-96 161.67 -96 161.34 -96 161 C-64.31546248 160.86656117 -32.67403859 161.19492742 -1 162 C-1.01252808 160.93846207 -1.02505615 159.87692413 -1.03796387 158.78321838 C-1.15819868 148.56829617 -1.27582083 138.35334644 -1.39115143 128.13836765 C-1.4504602 122.89211604 -1.51055901 117.64587646 -1.57275391 112.3996582 C-1.8287483 90.7535399 -2.04727982 69.10874933 -2.05859375 47.4609375 C-2.05962097 46.63048479 -2.06064819 45.80003208 -2.06170654 44.94441414 C-2.09947822 4.19895643 -2.09947822 4.19895643 0 0 Z " fill="#1979C7" transform="translate(205,343)"/>
<path d="M0 0 C0.33 0.99 0.66 1.98 1 3 C1.66 3.33 2.32 3.66 3 4 C3.02294758 44.45093528 3.04053936 84.9018697 3.05106533 125.3528102 C3.05231586 130.14113129 3.0536102 134.92945237 3.05493164 139.71777344 C3.05532511 141.14752434 3.05532511 141.14752434 3.05572652 142.60615911 C3.06006394 157.98862917 3.06794078 173.37109544 3.0771528 188.75356327 C3.08654314 204.56708212 3.09206695 220.380599 3.09408849 236.19412053 C3.0954526 245.93202114 3.09974232 255.66991106 3.10791647 265.40780838 C3.11325048 272.10836247 3.11478936 278.80891112 3.11350138 285.50946717 C3.11286827 289.36070222 3.11375642 293.21191875 3.11920547 297.06315041 C3.13983046 312.29206854 3.06783124 327.491693 2.26206118 342.70443809 C1.98860027 348.30071449 2.11139638 353.46350063 3 359 C2.01 359.66 1.02 360.32 0 361 C0 241.87 0 122.74 0 0 Z M-38 360 C-19.19 360.495 -19.19 360.495 0 361 C-4 364 -4 364 -7 364 C-8.39049561 363.76228882 -8.39049561 363.76228882 -9.80908203 363.51977539 C-12.92248512 363.01262656 -15.90438883 362.79726432 -19.0546875 362.68359375 C-20.16328125 362.64169922 -21.271875 362.59980469 -22.4140625 362.55664062 C-23.55617188 362.51732422 -24.69828125 362.47800781 -25.875 362.4375 C-27.0403125 362.39431641 -28.205625 362.35113281 -29.40625 362.30664062 C-32.27072625 362.20098371 -35.13528321 362.09888201 -38 362 C-38 361.34 -38 360.68 -38 360 Z " fill="#1071C2" transform="translate(433,108)"/>
<path d="M0 0 C0.33 0 0.66 0 1 0 C1 144.54 1 289.08 1 438 C39.28 438 77.56 438 117 438 C117 438.66 117 439.32 117 440 C104.68092662 440.13156872 92.36184208 440.2620354 80.04274273 440.39115143 C74.32056298 440.45115881 68.59838752 440.5115251 62.8762207 440.57275391 C57.33893026 440.63199058 51.80163009 440.69022926 46.26432228 440.74781799 C44.16716968 440.76979597 42.07002062 440.79211463 39.9728756 440.81480408 C34.2242572 440.87687907 28.47567867 440.93023727 22.72689438 440.97427368 C19.95488185 441.00042566 17.18333863 441.04147672 14.41152954 441.08374023 C12.66864423 441.10243663 10.92575493 441.12076504 9.18286133 441.13867188 C8.38202716 441.1546064 7.58119299 441.17054092 6.75609112 441.18695831 C4.8364326 441.200859 2.91656076 441.1098949 1 441 C-1 439 -1 439 -1.24198103 436.10950595 C-1.2381996 434.86253552 -1.23441817 433.6155651 -1.23052216 432.33080769 C-1.23115983 431.63720736 -1.23179751 430.94360703 -1.23245451 430.22898852 C-1.2321593 427.89426534 -1.21751661 425.55984889 -1.20300293 423.22517395 C-1.1998967 421.5596381 -1.19767599 419.8941004 -1.19627857 418.22856224 C-1.18996254 413.68514436 -1.17125682 409.14184964 -1.1504904 404.59847794 C-1.13058106 399.77241144 -1.1220934 394.9463247 -1.11241913 390.12022877 C-1.09484808 382.06229475 -1.07058487 374.00440634 -1.04135132 365.9465065 C-1.00435898 355.71899385 -0.97851532 345.49149262 -0.95846897 335.26393396 C-0.92010401 315.73756455 -0.86531665 296.21126038 -0.80645856 276.68494345 C-0.77747032 267.05522993 -0.74996919 257.42551229 -0.72249681 247.79579435 C-0.67353118 230.64470317 -0.6235102 213.49361526 -0.57275391 196.3425293 C-0.52366385 179.75366378 -0.47511546 163.16479682 -0.42724609 146.57592773 C-0.4242591 145.5408628 -0.4212721 144.50579786 -0.41819459 143.43936732 C-0.4032021 138.24301004 -0.38821973 133.04665274 -0.37324238 127.85029542 C-0.25039605 85.23352566 -0.12580729 42.61676112 0 0 Z " fill="#001124" transform="translate(90,69)"/>
<path d="M0 0 C24.42 0 48.84 0 74 0 C74 0.33 74 0.66 74 1 C73.1127272 1.01030746 72.22545441 1.02061493 71.31129456 1.03123474 C62.96748429 1.12903425 54.62374785 1.23152315 46.28006077 1.33933926 C41.9900379 1.39460736 37.70000826 1.44803343 33.40991211 1.49731445 C29.27314564 1.54490086 25.13646464 1.59724132 20.99979973 1.65294075 C19.41810153 1.67339034 17.83637988 1.69209903 16.25464058 1.70907402 C14.04670822 1.7330607 11.8389388 1.76312256 9.63110352 1.79467773 C8.37201675 1.81022202 7.11292999 1.8257663 5.81568909 1.84178162 C3.09702459 1.68086804 3.09702459 1.68086804 2 3 C1.90277157 5.24000248 1.87813565 7.48314875 1.87974548 9.72525978 C1.87889124 10.44018689 1.87803699 11.155114 1.87715685 11.89170557 C1.87549595 14.31777176 1.88104148 16.74377036 1.88647461 19.16983032 C1.88675429 20.91461987 1.8865923 22.65940953 1.88602352 24.404199 C1.88572642 29.22270266 1.89168497 34.04118196 1.89859343 38.85967994 C1.90494173 44.04730071 1.90553455 49.23492233 1.9067688 54.42254639 C1.90966184 63.4199831 1.91611166 72.41741165 1.92483521 81.41484451 C1.93736284 94.43140275 1.94345993 107.44795795 1.94776857 120.46452121 C1.95484413 141.59077045 1.96565194 162.71701588 1.97949219 183.84326172 C1.98032 185.10888071 1.98114781 186.3744997 1.98200071 187.67847078 C1.98874389 197.94512704 1.99566699 208.21178319 2.00260353 218.47843933 C2.00865439 227.44379674 2.01463534 236.40915419 2.02050781 245.37451172 C2.02133594 246.6367773 2.02216407 247.89904288 2.02301729 249.19955893 C2.03669762 270.23706413 2.04646024 291.2745694 2.05341816 312.31207788 C2.05790358 325.29685919 2.06595242 338.28162914 2.07856297 351.26640515 C2.08698163 360.16460141 2.09187783 369.06279505 2.09398818 377.96099503 C2.09533483 383.09795162 2.09835377 388.23489351 2.10574722 393.37184525 C2.11248858 398.07348506 2.11463388 402.77510361 2.11311162 407.4767478 C2.11338336 409.17871663 2.11536033 410.88068622 2.1192044 412.58265074 C2.12418515 414.89502482 2.12298422 417.20731738 2.12025452 419.51969337 C2.12117631 420.80450462 2.1220981 422.08931587 2.12304783 423.41306078 C1.99971515 427.00830352 1.5762827 430.45152751 1 434 C0.67 434 0.34 434 0 434 C0 290.78 0 147.56 0 0 Z " fill="#0960AB" transform="translate(94,70)"/>
<path d="M0 0 C14.51661699 -0.04673805 29.0332223 -0.0818647 43.5498991 -0.10362434 C50.29037174 -0.11393325 57.03079761 -0.12798619 63.77124023 -0.15087891 C70.27456805 -0.17295576 76.77786549 -0.18456486 83.28122902 -0.18975449 C85.76396259 -0.19345348 88.24669345 -0.20067656 90.72940636 -0.21146011 C94.20337069 -0.22595076 97.67713341 -0.22797893 101.15112305 -0.22705078 C102.18042938 -0.23424133 103.20973572 -0.24143188 104.27023315 -0.24884033 C105.21949173 -0.246091 106.16875031 -0.24334167 107.14677429 -0.24050903 C107.96809184 -0.24235262 108.78940939 -0.24419621 109.63561535 -0.24609566 C112 0 112 0 117 2 C117 54.47 117 106.94 117 161 C116.34 161.33 115.68 161.66 115 162 C114.99761165 161.18755388 114.99522329 160.37510777 114.99276257 159.53804207 C114.9336917 139.79250873 114.85819274 120.04709826 114.76428509 100.30169868 C114.71927094 90.75306423 114.67986938 81.20446755 114.65356445 71.65576172 C114.63062973 63.33556471 114.5972828 55.01548665 114.55129844 46.69538391 C114.52730486 42.28770979 114.50861644 37.88015392 114.50238609 33.47241592 C114.4963628 29.32735354 114.47646389 25.18259398 114.44572449 21.03764343 C114.43689978 19.51302564 114.43323078 17.98836835 114.43499184 16.46372604 C114.43663272 14.38839595 114.42004956 12.31400222 114.39872742 10.23880005 C114.39411845 9.0754973 114.38950949 7.91219456 114.38476086 6.71364021 C114.19430423 5.37038831 114.19430423 5.37038831 114 4 C110.83197855 1.8879857 110.05057003 1.74610556 106.42524719 1.7215271 C105.4871521 1.71036362 104.54905701 1.69920013 103.58253479 1.68769836 C102.55538864 1.68553818 101.52824249 1.68337799 100.4699707 1.68115234 C99.38688629 1.67110672 98.30380188 1.6610611 97.18789673 1.65071106 C93.60053041 1.61976922 90.01323908 1.60281323 86.42578125 1.5859375 C83.94141489 1.56723472 81.45705495 1.54766199 78.97270203 1.5272522 C73.09732348 1.48108956 67.2219402 1.44371511 61.34647483 1.41057932 C54.00109646 1.36861671 46.6558365 1.31304324 39.31054688 1.2578125 C26.20709302 1.16093505 13.10358963 1.07618985 0 1 C0 0.67 0 0.34 0 0 Z " fill="#0F86E3" transform="translate(243,343)"/>
<path d="M0 0 C3.45376529 0.77467633 6.88242774 0.65488464 10.40283203 0.63085938 C11.20814362 0.62939911 12.0134552 0.62793884 12.84317017 0.62643433 C14.5886808 0.62263376 16.33418759 0.6165229 18.0796833 0.60836792 C20.84064124 0.59560122 23.60155112 0.58908807 26.36253357 0.58422852 C32.2216097 0.57280231 38.08064623 0.55355537 43.93969727 0.53320312 C50.73219966 0.50962383 57.52467942 0.48922794 64.31721306 0.4772644 C67.03992098 0.47077152 69.76255976 0.45826445 72.48524475 0.44555664 C74.15048156 0.44192485 75.81571901 0.43857302 77.48095703 0.43554688 C78.23999832 0.43038055 78.99903961 0.42521423 79.78108215 0.41989136 C82.92368425 0.41957338 85.37184621 0.53141944 88.37719727 1.53320312 C88.37719727 2.19320312 88.37719727 2.85320312 88.37719727 3.53320312 C49.43719727 3.86320312 10.49719727 4.19320312 -29.62280273 4.53320312 C-29.29280273 3.54320313 -28.96280273 2.55320312 -28.62280273 1.53320312 C-23.91879252 0.31681261 -19.37668387 0.45545686 -14.56030273 0.53320312 C-12.96532039 0.55882533 -11.37025552 0.57981822 -9.77514648 0.59570312 C-9.07381592 0.60730469 -8.37248535 0.61890625 -7.64990234 0.63085938 C-5.60079265 0.60822082 -5.60079265 0.60822082 -3.61328125 -0.03320312 C-1.62280273 -0.46679688 -1.62280273 -0.46679688 0 0 Z " fill="#081A2D" transform="translate(119.622802734375,64.466796875)"/>
<path d="M0 0 C12.87 0 25.74 0 39 0 C39 0.33 39 0.66 39 1 C27.12 1.33 15.24 1.66 3 2 C2.18432345 6.07838277 1.8763602 9.27220148 1.87974548 13.3717804 C1.87837082 14.65760513 1.87699615 15.94342987 1.87557983 17.26821899 C1.87911853 18.68573022 1.88275333 20.1032412 1.88647461 21.52075195 C1.8867568 23.01900735 1.88659813 24.51726288 1.8860321 26.01551819 C1.88574536 30.07708818 1.89162228 34.13862861 1.89860606 38.20019174 C1.90486 42.44695145 1.90544502 46.69371185 1.90663147 50.94047546 C1.90973876 58.97974006 1.91794405 67.01899105 1.92798096 75.05824965 C1.93916077 84.21175669 1.94465726 93.36526437 1.94967639 102.51877654 C1.96012715 121.34585874 1.97771496 140.17292827 2 159 C1.34 159.33 0.68 159.66 0 160 C0 107.2 0 54.4 0 0 Z " fill="#1187E2" transform="translate(358,70)"/>
<path d="M0 0 C5.94 0 11.88 0 18 0 C19.2628735 3.7886205 19.11581627 7.31240226 19.08229065 11.25724792 C19.07906152 12.10919009 19.07583239 12.96113226 19.07250541 13.83889085 C19.06040622 16.70408092 19.04103834 19.56917629 19.02172852 22.43432617 C19.01158828 24.48400159 19.00189433 26.53367927 18.99261475 28.58335876 C18.96610818 34.15741441 18.93333387 39.73141791 18.89946485 45.30543303 C18.86514713 51.12705017 18.83655122 56.94869528 18.80735779 62.77033997 C18.75117984 73.79879669 18.689829 84.82721838 18.62663645 95.85563689 C18.55495515 108.40925602 18.48901506 120.96290322 18.42356598 133.51655614 C18.28878214 159.3444072 18.14675997 185.17221442 18 211 C17.67 211 17.34 211 17 211 C16.67 142.03 16.34 73.06 16 2 C15.01 1.67 14.02 1.34 13 1 C12.67 1.66 12.34 2.32 12 3 C11.34 2.67 10.68 2.34 10 2 C8.2984375 2.0309375 8.2984375 2.0309375 6.5625 2.0625 C3 2 3 2 0 0 Z " fill="#0B161E" transform="translate(412,109)"/>
<path d="M0 0 C24.42 0 48.84 0 74 0 C74 0.33 74 0.66 74 1 C73.1127272 1.01030746 72.22545441 1.02061493 71.31129456 1.03123474 C62.96748429 1.12903425 54.62374785 1.23152315 46.28006077 1.33933926 C41.9900379 1.39460736 37.70000826 1.44803343 33.40991211 1.49731445 C29.27314564 1.54490086 25.13646464 1.59724132 20.99979973 1.65294075 C19.41810153 1.67339034 17.83637988 1.69209903 16.25464058 1.70907402 C14.04670822 1.7330607 11.8389388 1.76312256 9.63110352 1.79467773 C8.37201675 1.81022202 7.11292999 1.8257663 5.81568909 1.84178162 C3.09702459 1.68086804 3.09702459 1.68086804 2 3 C1.87466913 5.98223174 1.81388422 8.94241634 1.79467773 11.92602539 C1.78477814 12.86251419 1.77487854 13.79900299 1.76467896 14.76387024 C1.73296247 17.87510608 1.70826659 20.98635722 1.68359375 24.09765625 C1.66303297 26.24857492 1.64203675 28.39948946 1.62062073 30.55039978 C1.5653095 36.22377189 1.51594028 41.89718101 1.46777344 47.57061768 C1.41762433 53.35505484 1.36190394 59.13943796 1.30664062 64.92382812 C1.19894842 76.28250598 1.09752818 87.64123065 1 99 C0.67 99 0.34 99 0 99 C0 66.33 0 33.66 0 0 Z " fill="#0A66B5" transform="translate(94,70)"/>
<path d="M0 0 C12.87 0 25.74 0 39 0 C39 0.33 39 0.66 39 1 C37.92516357 1.01458252 36.85032715 1.02916504 35.74291992 1.04418945 C31.75625283 1.1021489 27.77015199 1.17938129 23.78393555 1.26245117 C22.05844307 1.29571172 20.33284151 1.32374019 18.60717773 1.34643555 C16.12696834 1.37996153 13.6477597 1.43227406 11.16796875 1.48828125 C10.01001045 1.49786613 10.01001045 1.49786613 8.82865906 1.50764465 C4.61306923 1.58765754 4.61306923 1.58765754 0.98950195 3.53198242 C0.66296631 4.01642822 0.33643066 4.50087402 0 5 C0 3.35 0 1.7 0 0 Z " fill="#0E82DA" transform="translate(358,70)"/>
<path d="M0 0 C1.69752187 0.25245197 3.38471545 0.57645775 5.0625 0.9375 C5.98160156 1.13214844 6.90070313 1.32679688 7.84765625 1.52734375 C8.91306641 1.76130859 8.91306641 1.76130859 10 2 C10 2.33 10 2.66 10 3 C3.73 3 -2.54 3 -9 3 C-9.33 2.34 -9.66 1.68 -10 1 C-9.36191406 1.01160156 -8.72382812 1.02320313 -8.06640625 1.03515625 C-7.24011719 1.04417969 -6.41382812 1.05320312 -5.5625 1.0625 C-4.32693359 1.07990234 -4.32693359 1.07990234 -3.06640625 1.09765625 C-1.00836062 1.23267348 -1.00836062 1.23267348 0 0 Z " fill="#1260A7" transform="translate(105,503)"/>
</svg>
